<svg xmlns="http://www.w3.org/2000/svg" viewBox="0 0 64 64" role="img" aria-label="SuperHaojun favicon">
  <defs>
    <linearGradient id="superhaojun-favicon-gradient" x1="0%" y1="0%" x2="100%" y2="100%">
      <stop offset="0%" stop-color="#7dcfff" />
      <stop offset="100%" stop-color="#7aa2f7" />
    </linearGradient>
  </defs>
  <rect width="64" height="64" rx="18" fill="#111827" />
  <path
    d="M43.86 18.64c-3.3-2.43-7.43-3.64-12.39-3.64-3.95 0-7.45.73-10.5 2.2-1.94.93-3.59 2.13-4.97 3.6l5.75 5.73c2.24-2.22 5.46-3.33 9.65-3.33 2.63 0 4.72.49 6.27 1.47 1.54.98 2.31 2.25 2.31 3.8 0 1.36-.62 2.44-1.87 3.24-1.24.8-3.28 1.47-6.12 2-5.07.92-8.78 2.35-11.14 4.28-2.35 1.93-3.53 4.66-3.53 8.2 0 1.07.13 2.11.38 3.11.26 1 .66 1.97 1.2 2.91h9.22c-.91-1.03-1.36-2.16-1.36-3.38 0-1.51.7-2.69 2.1-3.55 1.4-.86 3.8-1.6 7.18-2.22 4.81-.92 8.35-2.29 10.61-4.12 2.26-1.83 3.39-4.48 3.39-7.95 0-4.73-1.65-8.38-4.95-10.95Z"
    fill="url(#superhaojun-favicon-gradient)"
  />
</svg>
